<?xml version="1.0" encoding="UTF-8" standalone="no"?>
<svg xmlns:svg="http://www.w3.org/2000/svg" xmlns="http://www.w3.org/2000/svg" version="1.0" width="500px" height="500px">
<defs>
<clipPath id="clip1">
  <circle cx="250" cy="250" r="240"/>
</clipPath>
</defs>
<g>
<circle fill="#FFFFFF" cx="250" cy="250" r="240"/>
<path fill="#E0E2ED" stroke="#C6BCC0" stroke-width="1" d="M 250 250 L490 250 L 490 388.564 z" clip-path="url(#clip1)" transform="rotate(0,250,250)"/>
<path fill="#E0E2ED" stroke="#C6BCC0" stroke-width="1" d="M 250 250 L490 250 L 490 388.564 z" clip-path="url(#clip1)" transform="rotate(60,250,250)"/>
<path fill="#E0E2ED" stroke="#C6BCC0" stroke-width="1" d="M 250 250 L490 250 L 490 388.564 z" clip-path="url(#clip1)" transform="rotate(120,250,250)"/>
<path fill="#E0E2ED" stroke="#C6BCC0" stroke-width="1" d="M 250 250 L490 250 L 490 388.564 z" clip-path="url(#clip1)" transform="rotate(180,250,250)"/>
<path fill="#E0E2ED" stroke="#C6BCC0" stroke-width="1" d="M 250 250 L490 250 L 490 388.564 z" clip-path="url(#clip1)" transform="rotate(240,250,250)"/>
<path fill="#E0E2ED" stroke="#C6BCC0" stroke-width="1" d="M 250 250 L490 250 L 490 388.564 z" clip-path="url(#clip1)" transform="rotate(300,250,250)"/>
<text x="433" y="299" font-family="Arial" font-size="32" fill="#000000" text-anchor="middle">A</text>
    <text x="365" y="281" font-family="Arial" font-size="24" fill="#000000" text-anchor="middle">f♯</text>
    <text x="384" y="384" font-family="Arial" font-size="32" fill="#000000" text-anchor="middle">E</text>
    <text x="334" y="334" font-family="Arial" font-size="24" fill="#000000" text-anchor="middle">c♯</text>
    <text x="299" y="433" font-family="Arial" font-size="32" fill="#000000" text-anchor="middle">B</text>
    <text x="281" y="365" font-family="Arial" font-size="24" fill="#000000" text-anchor="middle">g♯</text>
    <text x="200" y="433" font-family="Arial" font-size="32" fill="#000000" text-anchor="middle">F♯/G♭</text>
    <text x="218" y="365" font-family="Arial" font-size="24" fill="#000000" text-anchor="middle">e♭/d♯</text>
    <text x="115" y="384" font-family="Arial" font-size="32" fill="#000000" text-anchor="middle">D♭</text>
    <text x="165" y="334" font-family="Arial" font-size="24" fill="#000000" text-anchor="middle">b♭</text>
    <text x="66" y="299" font-family="Arial" font-size="32" fill="#000000" text-anchor="middle">A♭</text>
    <text x="134" y="281" font-family="Arial" font-size="24" fill="#000000" text-anchor="middle">f</text>
    <text x="66" y="200" font-family="Arial" font-size="32" fill="#000000" text-anchor="middle">E♭</text>
    <text x="134" y="218" font-family="Arial" font-size="24" fill="#000000" text-anchor="middle">c</text>
    <text x="115" y="115" font-family="Arial" font-size="32" fill="#000000" text-anchor="middle">B♭</text>
    <text x="165" y="165" font-family="Arial" font-size="24" fill="#000000" text-anchor="middle">g</text>
    <text x="200" y="66" font-family="Arial" font-size="32" fill="#000000" text-anchor="middle">F</text>
    <text x="218" y="134" font-family="Arial" font-size="24" fill="#000000" text-anchor="middle">d</text>
    <text x="299" y="66" font-family="Arial" font-size="32" fill="#000000" text-anchor="middle">C</text>
    <text x="281" y="134" font-family="Arial" font-size="24" fill="#000000" text-anchor="middle">a</text>
    <text x="384" y="115" font-family="Arial" font-size="32" fill="#000000" text-anchor="middle">G</text>
    <text x="334" y="165" font-family="Arial" font-size="24" fill="#000000" text-anchor="middle">e</text>
    <text x="433" y="200" font-family="Arial" font-size="32" fill="#000000" text-anchor="middle">D</text>
    <text x="365" y="218" font-family="Arial" font-size="24" fill="#000000" text-anchor="middle">b</text>
    <circle fill="none" stroke="#000000" stroke-width="2" cx="250" cy="250" r="240"/>
</g></svg>